<mxfile host="app.diagrams.net" agent="Mozilla/5.0 (X11; Linux x86_64) AppleWebKit/537.36 (KHTML, like Gecko) Chrome/127.0.0.0 Safari/537.36" version="24.7.6">
  <diagram name="Page-1" id="nmbwLZTsiF6mfS093YFC">
    <mxGraphModel dx="2214" dy="1859" grid="1" gridSize="10" guides="1" tooltips="1" connect="1" arrows="1" fold="1" page="1" pageScale="1" pageWidth="850" pageHeight="1100" math="0" shadow="0">
      <root>
        <mxCell id="0" />
        <mxCell id="1" parent="0" />
        <mxCell id="2" value="Start" style="whiteSpace=wrap;strokeWidth=2;" parent="1" vertex="1">
          <mxGeometry x="94" width="49" height="32" as="geometry" />
        </mxCell>
        <mxCell id="3" value="Decision" style="rhombus;strokeWidth=2;whiteSpace=wrap;" parent="1" vertex="1">
          <mxGeometry x="64" y="99" width="108" height="108" as="geometry" />
        </mxCell>
        <mxCell id="4" value="Process data" style="whiteSpace=wrap;strokeWidth=2;" parent="1" vertex="1">
          <mxGeometry y="274" width="108" height="32" as="geometry" />
        </mxCell>
        <mxCell id="5" value="End" style="whiteSpace=wrap;strokeWidth=2;" parent="1" vertex="1">
          <mxGeometry x="33" y="356" width="43" height="32" as="geometry" />
        </mxCell>
        <mxCell id="6" value="Stop" style="whiteSpace=wrap;strokeWidth=2;" parent="1" vertex="1">
          <mxGeometry x="158" y="274" width="48" height="32" as="geometry" />
        </mxCell>
        <mxCell id="7" value="Input data" style="curved=1;startArrow=none;endArrow=block;exitX=0.5;exitY=1;entryX=0.5;entryY=0;" parent="1" source="2" target="3" edge="1">
          <mxGeometry relative="1" as="geometry">
            <Array as="points" />
          </mxGeometry>
        </mxCell>
        <mxCell id="8" value="Yes" style="curved=1;startArrow=none;endArrow=block;exitX=0.14;exitY=1;entryX=0.5;entryY=0.01;" parent="1" source="3" target="4" edge="1">
          <mxGeometry relative="1" as="geometry">
            <Array as="points">
              <mxPoint x="54" y="241" />
            </Array>
          </mxGeometry>
        </mxCell>
        <mxCell id="9" value="" style="curved=1;startArrow=none;endArrow=block;exitX=0.5;exitY=1.01;entryX=0.49;entryY=0.01;" parent="1" source="4" target="5" edge="1">
          <mxGeometry relative="1" as="geometry">
            <Array as="points" />
          </mxGeometry>
        </mxCell>
        <mxCell id="10" value="No" style="curved=1;startArrow=none;endArrow=block;exitX=0.87;exitY=1;entryX=0.51;entryY=0.01;" parent="1" source="3" target="6" edge="1">
          <mxGeometry relative="1" as="geometry">
            <Array as="points">
              <mxPoint x="182" y="241" />
            </Array>
          </mxGeometry>
        </mxCell>
        <mxCell id="iikdVHqPuDTkBYgfwAKx-10" value="&#xa;  &#xa;    &lt;title&gt;Conversation Summary&lt;/title&gt;&#xa;    &#xa;      &lt;title&gt;Introduction to Userâ€™s Needs and Goals&lt;/title&gt;&#xa;      &#xa;        &#xa;          &#xa;            &lt;title&gt;Re-establishing contact with leads, leveraging AI, and potentially commercializing as SaaS&lt;/title&gt;&#xa;          &#xa;        &#xa;      &#xa;    &#xa;    &#xa;      &lt;title&gt;Discussing Vapi, SalesGPT, and Tools&lt;/title&gt;&#xa;      &#xa;        &#xa;          &#xa;            &lt;title&gt;Vapi for voice interactions, SalesGPT for sales automation, integrating Whisper, Coqui, Tesseract, and OpenCV&lt;/title&gt;&#xa;          &#xa;        &#xa;      &#xa;    &#xa;    &#xa;      &lt;title&gt;Implementing Vapi with PBX Systems&lt;/title&gt;&#xa;      &#xa;        &#xa;          &#xa;            &lt;title&gt;Setting up infrastructure, developing conversational AI, PBX integration, real-time audio processing&lt;/title&gt;&#xa;          &#xa;        &#xa;      &#xa;    &#xa;    &#xa;      &lt;title&gt;Advanced Semantic Interpretation of GUI Actions&lt;/title&gt;&#xa;      &#xa;        &#xa;          &#xa;            &lt;title&gt;Using OCR, computer vision, and LLMs for extracting and analyzing information from screencasts, creating documentation, and enhancing accuracy&lt;/title&gt;&#xa;          &#xa;        &#xa;      &#xa;    &#xa;    &#xa;      &lt;title&gt;Idea for a Unique SaaS Product&lt;/title&gt;&#xa;      &#xa;        &#xa;          &#xa;            &lt;title&gt;Focusing on semantic interpretation of GUI actions, leveraging advanced models, interactive learning, context-aware interpretation&lt;/title&gt;&#xa;          &#xa;        &#xa;      &#xa;    &#xa;    &#xa;      &lt;title&gt;Developing Tracknet-Based Squash App&lt;/title&gt;&#xa;      &#xa;        &#xa;          &#xa;            &lt;title&gt;Potential technologies, challenges, and branching ideas&lt;/title&gt;&#xa;          &#xa;        &#xa;      &#xa;    &#xa;  &#xa;" style="text;whiteSpace=wrap;html=1;" vertex="1" parent="1">
          <mxGeometry width="30" height="50" as="geometry" />
        </mxCell>
      </root>
    </mxGraphModel>
  </diagram>
</mxfile>
